HIERARCHY
ROOT Hips
{
    OFFSET 0.000 93.594 0.000
    CHANNELS 6 Xposition Yposition Zposition Yrotation Xrotation Zrotation
    JOINT RightHip
    {
        OFFSET -9.500 -1.594 0.000
        CHANNELS 3 Yrotation Xrotation Zrotation
        JOINT RightKnee
        {
            OFFSET 0.000 -42.000 0.000
            CHANNELS 3 Yrotation Xrotation Zrotation
            JOINT RightAnkle
            {
                OFFSET 0.000 -42.000 0.000
                CHANNELS 3 Yrotation Xrotation Zrotation
                End Site
                {
                    OFFSET 0.000 -8.000 17.500
                }
            }
        }
    }
    JOINT LeftHip
    {
        OFFSET 9.500 -1.594 0.000
        CHANNELS 3 Yrotation Xrotation Zrotation
        JOINT LeftKnee
        {
            OFFSET 0.000 -42.000 0.000
            CHANNELS 3 Yrotation Xrotation Zrotation
            JOINT LeftAnkle
            {
                OFFSET 0.000 -42.000 0.000
                CHANNELS 3 Yrotation Xrotation Zrotation
                End Site
                {
                    OFFSET 0.000 -8.000 17.500
                }
            }
        }
    }
    JOINT Chest
    {
        OFFSET 0.000 14.348 0.000
        CHANNELS 3 Yrotation Xrotation Zrotation
        JOINT Chest2
        {
            OFFSET 0.000 9.746 0.000
            CHANNELS 3 Yrotation Xrotation Zrotation
            JOINT Chest3
            {
                OFFSET 0.000 10.149 0.000
                CHANNELS 3 Yrotation Xrotation Zrotation
                JOINT Chest4
                {
                    OFFSET 0.000 9.746 0.000
                    CHANNELS 3 Yrotation Xrotation Zrotation
                    JOINT Neck
                    {
                        OFFSET 0.000 10.417 0.000
                        CHANNELS 3 Yrotation Xrotation Zrotation
                        JOINT Head
                        {
                            OFFSET 0.000 9.000 0.000
                            CHANNELS 3 Yrotation Xrotation Zrotation
                            End Site
                            {
                                OFFSET 0.000 16.000 0.000
                            }
                        }
                    }
                    JOINT RightCollar
                    {
                        OFFSET -3.200 6.945 0.000
                        CHANNELS 3 Yrotation Xrotation Zrotation
                        JOINT RightShoulder
                        {
                            OFFSET -12.800 0.000 0.000
                            CHANNELS 3 Yrotation Xrotation Zrotation
                            JOINT RightElbow
                            {
OFFSET -0 -27 0.000
						CHANNELS 3 Xrotation Yrotation Zrotation
                                JOINT RightWrist
                                {
OFFSET -0 -26 0.000
						CHANNELS 3 Xrotation Yrotation Zrotation
                                    JOINT RightFinger0
                                    {
OFFSET -0.196 -2.56 3.210
						CHANNELS 3 Xrotation Yrotation Zrotation
                                        JOINT RightFinger01
                                        {
OFFSET -0 -3.788 0.000
						CHANNELS 3 Xrotation Yrotation Zrotation
                                            JOINT RightFinger0Nub
                                            {
OFFSET -0 -2.631 0.000
						CHANNELS 3 Xrotation Yrotation Zrotation
                                                End Site
                                                {
OFFSET 0 -2.256 0
                                                }
                                            }
                                        }
                                    }
                                    JOINT RightFinger1
                                    {
OFFSET -0.523 -3.316 2.035
						CHANNELS 3 Xrotation Yrotation Zrotation
                                        JOINT RightFinger11
                                        {
OFFSET 0.094 -5.366 1.028
						CHANNELS 3 Xrotation Yrotation Zrotation
                                            JOINT RightFinger12
                                            {
OFFSET -0 -3.723 0.000
						CHANNELS 3 Xrotation Yrotation Zrotation
                                                JOINT RightFinger1Nub
                                                {
OFFSET -0 -2.111 0.000
						CHANNELS 3 Xrotation Yrotation Zrotation
                                                    End Site
                                                    {
OFFSET 0 -1.857 0
                                                    }
                                                }
                                            }
                                        }
                                    }
                                    JOINT RightFinger2
                                    {
OFFSET -0.532 -3.479 0.778
						CHANNELS 3 Xrotation Yrotation Zrotation
                                        JOINT RightFinger21
                                        {
OFFSET 0.086 -5.322 0.323
						CHANNELS 3 Xrotation Yrotation Zrotation
                                            JOINT RightFinger22
                                            {
OFFSET -0 -4.062 0.000
						CHANNELS 3 Xrotation Yrotation Zrotation
                                                JOINT RightFinger2Nub
                                                {
OFFSET -0 -2.547 0.000
						CHANNELS 3 Xrotation Yrotation Zrotation
                                                    End Site
                                                    {
OFFSET 0 -2.031 0
                                                    }
                                                }
                                            }
                                        }
                                    }
                                    JOINT RightFinger3
                                    {
OFFSET -0.553 -3.461 -0.133
						CHANNELS 3 Xrotation Yrotation Zrotation
                                        JOINT RightFinger31
                                        {
OFFSET 0.023 -4.767 -0.493
						CHANNELS 3 Xrotation Yrotation Zrotation
                                            JOINT RightFinger32
                                            {
OFFSET -0 -3.541 0.000
						CHANNELS 3 Xrotation Yrotation Zrotation
                                                JOINT RightFinger3Nub
                                                {
OFFSET -0 -2.456 0.000
						CHANNELS 3 Xrotation Yrotation Zrotation
                                                    End Site
                                                    {
OFFSET 0 -1.91 0
                                                    }
                                                }
                                            }
                                        }
                                    }
                                    JOINT RightFinger4
                                    {
OFFSET -0.483 -3.251 -1.236
						CHANNELS 3 Xrotation Yrotation Zrotation
                                        JOINT RightFinger41
                                        {
OFFSET 0.023 -4.259 -1.122
						CHANNELS 3 Xrotation Yrotation Zrotation
                                            JOINT RightFinger42
                                            {
OFFSET -0 -2.835 0.000
						CHANNELS 3 Xrotation Yrotation Zrotation
                                                JOINT RightFinger4Nub
                                                {
OFFSET -0 -1.792 0.000
						CHANNELS 3 Xrotation Yrotation Zrotation
                                                    End Site
                                                    {
OFFSET 0 -1.692 0
                                                    }
                                                }
                                            }
                                        }
                                    }
                                }
                            }
                        }
                    }
                    JOINT LeftCollar
                    {
                        OFFSET 3.200 6.945 0.000
                        CHANNELS 3 Yrotation Xrotation Zrotation
                        JOINT LeftShoulder
                        {
                            OFFSET 12.800 0.000 0.000
                            CHANNELS 3 Yrotation Xrotation Zrotation
                            JOINT LeftElbow
                            {
OFFSET -0 -27 0.000
						CHANNELS 3 Xrotation Yrotation Zrotation
                                JOINT LeftWrist
                                {
OFFSET -0 -26 0.000
						CHANNELS 3 Xrotation Yrotation Zrotation
                                    JOINT LeftFinger0
                                    {
OFFSET -0.196 -2.56 3.210
						CHANNELS 3 Xrotation Yrotation Zrotation
                                        JOINT LeftFinger01
                                        {
OFFSET -0 -3.788 0.000
						CHANNELS 3 Xrotation Yrotation Zrotation
                                            JOINT LeftFinger0Nub
                                            {
OFFSET -0 -2.631 0.000
						CHANNELS 3 Xrotation Yrotation Zrotation
                                                End Site
                                                {
OFFSET 0 -2.256 0
                                                }
                                            }
                                        }
                                    }
                                    JOINT LeftFinger1
                                    {
OFFSET -0.523 -3.316 2.035
						CHANNELS 3 Xrotation Yrotation Zrotation
                                        JOINT LeftFinger11
                                        {
OFFSET 0.094 -5.366 1.028
						CHANNELS 3 Xrotation Yrotation Zrotation
                                            JOINT LeftFinger12
                                            {
OFFSET -0 -3.723 0.000
						CHANNELS 3 Xrotation Yrotation Zrotation
                                                JOINT LeftFinger1Nub
                                                {
OFFSET -0 -2.111 0.000
						CHANNELS 3 Xrotation Yrotation Zrotation
                                                    End Site
                                                    {
OFFSET 0 -1.857 0
                                                    }
                                                }
                                            }
                                        }
                                    }
                                    JOINT LeftFinger2
                                    {
OFFSET -0.532 -3.479 0.778
						CHANNELS 3 Xrotation Yrotation Zrotation
                                        JOINT LeftFinger21
                                        {
OFFSET 0.086 -5.322 0.323
						CHANNELS 3 Xrotation Yrotation Zrotation
                                            JOINT LeftFinger22
                                            {
OFFSET -0 -4.062 0.000
						CHANNELS 3 Xrotation Yrotation Zrotation
                                                JOINT LeftFinger2Nub
                                                {
OFFSET -0 -2.547 0.000
						CHANNELS 3 Xrotation Yrotation Zrotation
                                                    End Site
                                                    {
OFFSET 0 -2.031 0
                                                    }
                                                }
                                            }
                                        }
                                    }
                                    JOINT LeftFinger3
                                    {
OFFSET -0.553 -3.461 -0.133
						CHANNELS 3 Xrotation Yrotation Zrotation
                                        JOINT LeftFinger31
                                        {
OFFSET 0.023 -4.767 -0.493
						CHANNELS 3 Xrotation Yrotation Zrotation
                                            JOINT LeftFinger32
                                            {
OFFSET -0 -3.541 0.000
						CHANNELS 3 Xrotation Yrotation Zrotation
                                                JOINT LeftFinger3Nub
                                                {
OFFSET -0 -2.456 0.000
						CHANNELS 3 Xrotation Yrotation Zrotation
                                                    End Site
                                                    {
OFFSET 0 -1.91 0
                                                    }
                                                }
                                            }
                                        }
                                    }
                                    JOINT LeftFinger4
                                    {
OFFSET -0.483 -3.251 -1.236
						CHANNELS 3 Xrotation Yrotation Zrotation
                                        JOINT LeftFinger41
                                        {
OFFSET 0.023 -4.259 -1.122
						CHANNELS 3 Xrotation Yrotation Zrotation
                                            JOINT LeftFinger42
                                            {
OFFSET -0 -2.835 0.000
						CHANNELS 3 Xrotation Yrotation Zrotation
                                                JOINT LeftFinger4Nub
                                                {
OFFSET -0 -1.792 0.000
						CHANNELS 3 Xrotation Yrotation Zrotation
                                                    End Site
                                                    {
OFFSET 0 -1.692 0
                                                    }
                                                }
                                            }
                                        }
                                    }
                                }
                            }
                        }
                    }
                }
            }
        }
    }
}
MOTION

Frames: 13
Frame Time: 0.017
-79.84 90.68 8.93 78.99 4.35 -3.91 -0.79 -9.72 8.40 0.00 45.87 0.00 1.87 -9.09 21.90 -9.40 -6.30 7.49 0.00 36.24 0.00 14.83 -21.39 -8.83 -16.21 -4.03 3.24 -4.09 -0.86 0.68 -6.67 -1.20 1.15 2.44 -0.18 -0.11 18.34 0.27 -0.77 35.97 -3.07 -3.29 25.42 -5.59 -6.27 10.14 -51.62 -65.34 -41.98 7.77 25.62 0.81 22.93 16.86 -52.6 -0 18.87 5.35 -0 -10.95 -5.05 -0 0.00 0 -0 0.00 -15 -0 3.78 0 -0 4.23 0 -0 2.11 0 -0 0.00 0 -0 0.83 0 -0 0.83 0 -0 0.83 0 -0 0.00 15 -0 2.70 0 -0 2.70 0 -0 2.70 0 -0 0.00 25 -0 -6.20 0 -0 -6.20 0 -0 -6.20 -13.62 8.66 13.20 -26.65 -49.33 62.61 -21.50 -5.41 -2.88 -1.69 16.87 -15.92 -17.38 0 -42.58 -24.71 0 1.63 18.20 0 0.00 0.00 0 0.00 -15.00 0 -2.67 0.00 0 0.77 0.00 0 0.38 0.00 0 0.00 0.00 0 -8.83 0.00 0 -8.83 0.00 0 -8.83 0.00 0 0.00 15.00 0 -15.44 0.00 0 -15.44 0.00 0 -15.44 0.00 0 0.00 25.00 0 -10.99 0.00 0 -10.99 0.00 0 -10.99 
-78.95 90.34 9.43 78.56 4.10 -3.42 -1.44 -11.29 7.54 -0.00 49.93 0.00 3.84 -6.47 25.15 -9.74 -5.23 6.86 -0.00 36.19 -0.00 15.61 -21.92 -9.29 -15.88 -3.93 2.71 -4.01 -0.85 0.56 -6.53 -1.22 0.95 2.45 -0.22 -0.11 18.98 0.30 -0.89 35.89 -4.31 -3.72 25.18 -5.41 -6.43 9.75 -51.99 -64.7 -41.86 8.18 25.39 0.44 22.61 17.10 -52.43 -0 18.86 5.69 -0 -10.97 -5.07 -0 0.00 0 -0 0.00 -15 -0 3.80 0 -0 4.27 0 -0 2.14 0 -0 0.00 0 -0 0.83 0 -0 0.83 0 -0 0.83 0 -0 0.00 15 -0 2.70 0 -0 2.70 0 -0 2.70 0 -0 0.00 25 -0 -6.20 0 -0 -6.20 0 -0 -6.20 -13.77 9.07 12.79 -28.12 -49.03 64.28 -21.38 -4.53 -2.70 -1.43 17.15 -15.82 -17.84 0 -41.01 -25.63 0 3.21 18.87 0 0.00 0.00 0 0.00 -15.00 0 -2.89 0.00 0 1.79 0.00 0 0.89 0.00 0 0.00 0.00 0 -9.05 0.00 0 -9.05 0.00 0 -9.05 0.00 0 0.00 15.00 0 -15.48 0.00 0 -15.48 0.00 0 -15.48 0.00 0 0.00 25.00 0 -10.86 0.00 0 -10.86 0.00 0 -10.86 
-78.19 90.03 9.88 78.33 3.90 -2.89 -1.21 -13.28 7.12 0.00 54.03 0.00 4.14 -4.93 28.64 -10.27 -4.33 6.22 0.00 36.07 -0.00 16.25 -22.29 -9.62 -15.78 -3.82 2.12 -3.98 -0.84 0.41 -6.49 -1.23 0.72 2.46 -0.26 -0.10 19.82 0.34 -1.01 35.76 -5.58 -4.12 24.97 -5.35 -6.60 9.33 -52.37 -63.88 -41.75 8.72 25.16 0.02 22.17 17.34 -52.21 -0 18.87 6.12 -0 -10.95 -5.08 -0 0.00 0 -0 0.00 -15 -0 3.79 0 -0 4.30 0 -0 2.15 0 -0 0.00 0 -0 0.84 0 -0 0.84 0 -0 0.84 0 -0 0.00 15 -0 2.67 0 -0 2.67 0 -0 2.67 0 -0 0.00 25 -0 -6.20 0 -0 -6.20 0 -0 -6.20 -14.11 9.10 12.64 -28.86 -48.55 65.4 -21.25 -3.85 -2.55 -1.17 17.46 -15.90 -17.82 0 -41.14 -25.59 0 3.07 18.84 0 0.00 0.00 0 0.00 -15.00 0 -2.97 0.00 0 1.81 0.00 0 0.91 0.00 0 0.00 0.00 0 -9.16 0.00 0 -9.16 0.00 0 -9.16 0.00 0 0.00 15.00 0 -15.38 0.00 0 -15.38 0.00 0 -15.38 0.00 0 0.00 25.00 0 -10.61 0.00 0 -10.61 0.00 0 -10.61 
-77.36 89.77 10.49 78.36 3.81 -2.56 -1.38 -15.15 7.06 0.00 57.80 0.00 4.59 -5.22 29.67 -10.79 -3.44 5.92 0.00 35.86 -0.00 16.74 -22.48 -9.91 -15.93 -3.81 1.64 -4.02 -0.84 0.30 -6.54 -1.26 0.52 2.53 -0.42 -0.14 24.21 0.85 -1.94 34.95 -10.10 -6.75 24.71 -5.17 -6.66 9.28 -52.15 -63.98 -41.78 8.39 25.14 0.1 21.91 17.39 -52.16 -0 18.93 6.22 -0 -10.89 -5.07 -0 0.00 0 -0 0.00 -15 -0 3.79 0 -0 4.21 0 -0 2.10 0 -0 0.00 0 -0 0.82 0 -0 0.82 0 -0 0.82 0 -0 0.00 15 -0 2.67 0 -0 2.67 0 -0 2.67 0 -0 0.00 25 -0 -6.16 0 -0 -6.16 0 -0 -6.16 -14.51 9.26 12.43 -29.31 -48.17 66.32 -21.10 -3.56 -2.41 -1.81 18.34 -15.96 -17.53 0 -41.24 -25.02 0 2.98 18.85 0 0.00 0.00 0 0.00 -15.00 0 -3.75 0.00 0 2.28 0.00 0 1.14 0.00 0 0.00 0.00 0 -9.44 0.00 0 -9.44 0.00 0 -9.44 0.00 0 0.00 15.00 0 -15.44 0.00 0 -15.44 0.00 0 -15.44 0.00 0 0.00 25.00 0 -10.50 0.00 0 -10.50 0.00 0 -10.50 
-76.50 89.56 10.95 78.52 3.77 -2.59 -1.52 -17.32 7.02 0.00 60.42 -0.00 5.14 -6.59 28.37 -11.18 -2.73 5.99 0.00 35.91 0.00 16.75 -22.70 -9.95 -16.18 -3.82 1.35 -4.08 -0.85 0.22 -6.63 -1.28 0.40 2.54 -0.43 -0.14 25.27 0.97 -2.10 34.66 -10.59 -7.03 24.50 -5.16 -6.76 9.06 -51.92 -63.71 -41.98 8.36 25.13 0.37 21.61 17.37 -52.15 -0 19.11 6.24 -0 -10.71 -5.16 -0 0.00 0 -0 0.00 -15 -0 3.79 0 -0 4.15 0 -0 2.07 0 -0 0.00 0 -0 0.79 0 -0 0.79 0 -0 0.79 0 -0 0.00 15 -0 2.72 0 -0 2.72 0 -0 2.72 0 -0 0.00 25 -0 -6.09 0 -0 -6.09 0 -0 -6.09 -14.86 9.32 12.23 -29.31 -48.19 66.77 -21.05 -3.7 -2.36 -2.17 18.61 -15.66 -17.49 0 -41.16 -24.93 0 3.05 18.85 0 0.00 0.00 0 0.00 -15.00 0 -4.50 0.00 0 2.90 0.00 0 1.45 0.00 0 0.00 0.00 0 -9.51 0.00 0 -9.51 0.00 0 -9.51 0.00 0 0.00 15.00 0 -15.39 0.00 0 -15.39 0.00 0 -15.39 0.00 0 0.00 25.00 0 -10.37 0.00 0 -10.37 0.00 0 -10.37 
-75.61 89.36 11.61 78.71 3.63 -2.87 -2.13 -19.12 6.67 -0.00 62.73 -0.00 5.60 -10.35 25.93 -11.45 -1.89 6.45 -0.00 36.07 -0.00 16.64 -22.79 -10.14 -16.38 -3.69 1.11 -4.13 -0.82 0.16 -6.71 -1.25 0.31 2.55 -0.45 -0.15 26.13 1.09 -2.26 34.40 -10.86 -7.31 24.23 -5.40 -6.75 8.55 -51.98 -62.65 -42.1 8.97 25.13 1.39 23.05 17.54 -52.86 -0 18.48 4.83 -0 -11.34 -4.64 -0 0.00 0 -0 0.00 -15 -0 3.19 0 -0 4.35 0 -0 2.17 0 -0 0.00 0 -0 0.38 0 -0 0.38 0 -0 0.38 0 -0 0.00 15 -0 2.74 0 -0 2.74 0 -0 2.74 0 -0 0.00 25 -0 -5.99 0 -0 -5.99 0 -0 -5.99 -14.66 9.59 12.83 -28.97 -49.15 66.25 -21.15 -4.13 -2.50 -2.63 18.97 -15.22 -17.25 0 -41.50 -24.45 0 2.71 18.85 0 0.00 0.00 0 0.00 -15.00 0 -4.99 0.00 0 3.01 0.00 0 1.51 0.00 0 0.00 0.00 0 -9.79 0.00 0 -9.79 0.00 0 -9.79 0.00 0 0.00 15.00 0 -15.32 0.00 0 -15.32 0.00 0 -15.32 0.00 0 0.00 25.00 0 -10.32 0.00 0 -10.32 0.00 0 -10.32 
-74.52 89.19 12.27 78.83 3.32 -3.32 -2.35 -21.25 6.30 0.00 65.49 0.00 4.58 -14.47 24.74 -11.29 -0.73 7.07 -0.00 36.16 -0.00 16.21 -22.78 -10.16 -16.49 -3.35 0.91 -4.16 -0.75 0.13 -6.75 -1.14 0.24 2.56 -0.46 -0.17 26.83 1.23 -2.44 34.17 -10.94 -7.68 24.03 -5.74 -6.73 7.95 -52.01 -61.68 -42.06 9.35 25.29 1.48 23.02 17.63 -52.97 -0 18.30 4.59 -0 -11.52 -4.4 -0 0.00 0 -0 0.00 -15 -0 3.61 0 -0 4.43 0 -0 2.21 0 -0 0.00 0 -0 0.38 0 -0 0.38 0 -0 0.38 0 -0 0.00 15 -0 2.78 0 -0 2.78 0 -0 2.78 0 -0 0.00 25 -0 -6.11 0 -0 -6.11 0 -0 -6.11 -14.53 9.76 13.46 -28.29 -50.17 65.33 -21.37 -4.47 -2.74 -3.12 19.32 -14.76 -16.94 0 -41.94 -23.84 0 2.27 18.85 0 0.00 0.00 0 0.00 -15.00 0 -5.31 0.00 0 2.81 0.00 0 1.40 0.00 0 0.00 0.00 0 -10.25 0.00 0 -10.25 0.00 0 -10.25 0.00 0 0.00 15.00 0 -15.29 0.00 0 -15.29 0.00 0 -15.29 0.00 0 0.00 25.00 0 -10.44 0.00 0 -10.44 0.00 0 -10.44 
-73.53 89.03 13.31 78.87 2.89 -3.80 -2.51 -23.49 5.83 -0.00 67.50 -0.00 2.34 -18.28 24.52 -10.98 0.53 8.03 0.00 36.27 -0.00 15.67 -22.48 -10.37 -16.58 -2.82 0.75 -4.18 -0.63 0.10 -6.79 -0.96 0.19 2.57 -0.48 -0.20 27.64 1.43 -2.69 33.89 -10.94 -8.21 24.06 -5.96 -6.73 7.28 -51.05 -62.18 -42.52 7.89 25.83 1.54 22.83 17.61 -52.83 -0 18.48 4.89 -0 -11.34 -5.05 -0 0.00 0 -0 0.00 -15 -0 3.55 0 -0 4.48 0 -0 2.24 0 -0 0.00 0 -0 0.56 0 -0 0.56 0 -0 0.56 0 -0 0.00 15 -0 2.82 0 -0 2.82 0 -0 2.82 0 -0 0.00 25 -0 -6.32 0 -0 -6.32 0 -0 -6.32 -14.33 9.73 14.11 -27.57 -50.90 64.21 -21.64 -4.35 -2.97 -3.47 19.62 -14.42 -16.75 0 -42.02 -23.46 0 2.19 18.86 0 0.00 0.00 0 0.00 -15.00 0 -5.89 0.00 0 3.25 0.00 0 1.63 0.00 0 0.00 0.00 0 -10.84 0.00 0 -10.84 0.00 0 -10.84 0.00 0 0.00 15.00 0 -15.44 0.00 0 -15.44 0.00 0 -15.44 0.00 0 0.00 25.00 0 -10.78 0.00 0 -10.78 0.00 0 -10.78 
-72.59 88.87 14.00 78.76 2.55 -4.13 -2.89 -25.41 4.68 0.00 67.74 0.00 0.47 -21.42 24.06 -10.51 1.37 8.62 0.00 36.72 -0.00 15.11 -22.16 -10.23 -16.59 -2.23 0.56 -4.18 -0.50 0.07 -6.79 -0.76 0.14 2.58 -0.50 -0.24 28.53 1.70 -3.03 33.57 -10.94 -8.90 24.10 -6.02 -6.84 6.49 -51.23 -61.75 -42.59 7.53 26.34 1.57 22.6 17.51 -52.74 -0 18.57 5.05 -0 -11.25 -5.35 -0 0.00 0 -0 0.00 -15 -0 3.46 0 -0 4.62 0 -0 2.31 0 -0 0.00 0 -0 0.49 0 -0 0.49 0 -0 0.49 0 -0 0.00 15 -0 2.87 0 -0 2.87 0 -0 2.87 0 -0 0.00 25 -0 -6.57 0 -0 -6.57 0 -0 -6.57 -14.11 9.46 14.76 -27.04 -51.11 63.14 -21.92 -3.55 -3.13 -3.63 19.89 -14.25 -16.57 0 -42.08 -23.09 0 2.14 18.81 0 0.00 0.00 0 0.00 -15.00 0 -6.15 0.00 0 3.61 0.00 0 1.81 0.00 0 0.00 0.00 0 -11.53 0.00 0 -11.53 0.00 0 -11.53 0.00 0 0.00 15.00 0 -15.77 0.00 0 -15.77 0.00 0 -15.77 0.00 0 0.00 25.00 0 -11.40 0.00 0 -11.40 0.00 0 -11.40 
-71.72 88.73 14.69 78.50 2.33 -4.31 -3.84 -28.24 2.65 -0.00 65.28 -0.00 0.38 -21.83 22.96 -10.01 2.04 9.05 0.00 37.09 -0.00 14.76 -21.70 -10.05 -16.46 -1.64 0.36 -4.15 -0.37 0.04 -6.74 -0.57 0.08 2.58 -0.53 -0.28 29.40 2.02 -3.42 33.22 -10.86 -9.72 23.91 -6.01 -7.16 6.21 -49.73 -61.89 -43.23 5.69 25.90 1.6 22.43 17.39 -52.78 -0 18.45 4.99 -0 -11.37 -5.15 -0 0.00 0 -0 0.00 -15 -0 3.39 0 -0 4.75 0 -0 2.38 0 -0 0.00 0 -0 0.43 0 -0 0.43 0 -0 0.43 0 -0 0.00 15 -0 2.94 0 -0 2.94 0 -0 2.94 0 -0 0.00 25 -0 -6.81 0 -0 -6.81 0 -0 -6.81 -14.47 8.84 14.72 -26.85 -50.32 62.85 -22.13 -3.67 -2.38 -3.56 21.58 -15.02 -17.21 0 -41.25 -24.38 0 2.96 18.15 0 0.00 0.00 0 0.00 -15.00 0 -5.09 0.00 0 1.96 0.00 0 0.98 0.00 0 0.00 0.00 0 -12.31 0.00 0 -12.31 0.00 0 -12.31 0.00 0 0.00 15.00 0 -16.28 0.00 0 -16.28 0.00 0 -16.28 0.00 0 0.00 25.00 0 -12.26 0.00 0 -12.26 0.00 0 -12.26 
-70.84 88.51 15.34 78.13 2.16 -4.43 -2.46 -30.99 0.81 0.00 61.78 0.00 -1.40 -21.89 22.89 -9.58 2.68 9.34 0.00 37.52 0.00 14.54 -21.36 -9.88 -16.28 -1.04 0.16 -4.10 -0.23 0.01 -6.67 -0.37 0.03 2.59 -0.56 -0.33 30.30 2.37 -3.83 32.82 -10.74 -10.51 23.61 -6.00 -7.60 6.24 -49.60 -61.55 -43.3 5.22 25.71 1.68 22.29 17.26 -52.87 -0 18.27 4.8 -0 -11.55 -4.75 -0 0.00 0 -0 0.00 -15 -0 3.34 0 -0 4.97 0 -0 2.49 0 -0 0.00 0 -0 0.37 0 -0 0.37 0 -0 0.37 0 -0 0.00 15 -0 3.01 0 -0 3.01 0 -0 3.01 0 -0 0.00 25 -0 -6.98 0 -0 -6.98 0 -0 -6.98 -14.61 8.34 14.61 -27.25 -49.46 63 -22.33 -3.53 -1.50 -3.40 23.08 -15.97 -17.11 0 -41.48 -24.18 0 2.73 17.92 0 0.00 0.00 0 0.00 -15.00 0 -4.91 0.00 0 1.52 0.00 0 0.76 0.00 0 0.00 0.00 0 -13.04 0.00 0 -13.04 0.00 0 -13.04 0.00 0 0.00 15.00 0 -16.82 0.00 0 -16.82 0.00 0 -16.82 0.00 0 0.00 25.00 0 -13.02 0.00 0 -13.02 0.00 0 -13.02 
-69.99 88.27 16.00 77.77 2.05 -4.48 -0.23 -32.49 -0.73 -0.00 57.14 -0.00 -3.32 -22.59 22.46 -9.31 3.26 9.55 -0.00 37.92 -0.00 14.33 -21.04 -9.69 -16.12 -0.50 -0.04 -4.06 -0.12 -0.02 -6.60 -0.19 -0.04 2.59 -0.58 -0.38 31.17 2.70 -4.20 32.39 -10.55 -11.15 23.39 -5.96 -8.04 6.26 -49.52 -61.27 -43.53 5.03 25.49 1.77 22.2 17.18 -52.99 -0 18.28 4.57 -0 -11.54 -4.45 -0 0.00 0 -0 0.00 -15 -0 3.21 0 -0 5.20 0 -0 2.60 0 -0 0.00 0 -0 0.35 0 -0 0.35 0 -0 0.35 0 -0 0.00 15 -0 3.06 0 -0 3.06 0 -0 3.06 0 -0 0.00 25 -0 -7.08 0 -0 -7.08 0 -0 -7.08 -15.66 11.00 11.82 -30.25 -49.88 68.69 -22.61 -1.84 -1.47 -3.51 22.53 -16.08 -16.99 0 -41.70 -23.94 0 2.52 17.74 0 0.00 0.00 0 0.00 -15.00 0 -6.40 0.00 0 1.54 0.00 0 0.77 0.00 0 0.00 0.00 0 -13.71 0.00 0 -13.71 0.00 0 -13.71 0.00 0 0.00 15.00 0 -17.33 0.00 0 -17.33 0.00 0 -17.33 0.00 0 0.00 25.00 0 -13.69 0.00 0 -13.69 0.00 0 -13.69 
-69.15 87.93 16.70 77.61 1.92 -4.42 1.83 -33.18 -1.83 -0.00 52.39 -0.00 -4.45 -23.51 21.03 -9.32 3.82 9.62 -0.00 38.42 -0.00 14.39 -20.88 -9.62 -16.10 -0.03 -0.30 -4.06 -0.01 -0.08 -6.60 -0.04 -0.12 2.60 -0.59 -0.41 32.03 3.00 -4.51 31.91 -10.26 -11.61 23.35 -5.91 -8.43 6.19 -49.54 -61 -43.86 5.16 25.35 1.87 22.17 17.19 -53.07 -0 18.11 4.4 -0 -11.71 -4.08 -0 0.00 0 -0 0.00 -15 -0 3.03 0 -0 5.46 0 -0 2.73 0 -0 0.00 0 -0 0.33 0 -0 0.33 0 -0 0.33 0 -0 0.00 15 -0 3.11 0 -0 3.11 0 -0 3.11 0 -0 0.00 25 -0 -7.13 0 -0 -7.13 0 -0 -7.13 -15.57 11.16 11.81 -30.78 -49.74 69.17 -22.86 -0.53 -1.62 -3.93 21.59 -15.96 -16.89 0 -41.87 -23.74 0 2.35 17.70 0 0.00 0.00 0 0.00 -15.00 0 -7.39 0.00 0 1.19 0.00 0 0.60 0.00 0 0.00 0.00 0 -14.34 0.00 0 -14.34 0.00 0 -14.34 0.00 0 0.00 15.00 0 -17.84 0.00 0 -17.84 0.00 0 -17.84 0.00 0 0.00 25.00 0 -14.44 0.00 0 -14.44 0.00 0 -14.44 
